<svg width="95" height="22" viewBox="0 0 95 22" fill="none" xmlns="http://www.w3.org/2000/svg">
    <path d="M26.62 4.68H37.6V7.63H26.62V4.68Z" fill="white"/>
    <path d="M38.82 7.99H44.54V10.82H38.82V7.99Z" fill="white"/>
    <path d="M45.13 7.99H54.37V10.82H45.13V7.99Z" fill="white"/>
    <path d="M55.49 8.01H64.77V11.13H55.49V8.01Z" fill="white"/>
    <path d="M65.9 3.92H75.19V7.87H65.9V3.92Z" fill="white"/>
    <path d="M76.13 8.02H85.37V10.84H76.13V8.02Z" fill="white"/>
    <path d="M84.98 8.22H94.69V10.65H84.98V8.22Z" fill="white"/>
    <path d="M0.13 0.25H11.7V8.44H0.13V0.25Z" fill="white"/>
    <path d="M0.13 8.44H11.7V16.63H0.13V8.44Z" fill="white"/>
    <path d="M11.7 8.44H23.24V16.63H11.7V8.44Z" fill="white"/>
    <path d="M11.7 0.25H23.24V8.44H11.7V0.25Z" fill="white"/>
    <path d="M4.89 13.52H18.51V21.73H4.89V13.52Z" fill="white"/>
</svg> 