<svg width="82" height="28" viewBox="0 0 82 28" fill="none" xmlns="http://www.w3.org/2000/svg">
    <path d="M0 0H28.01V27.9H0V0Z" fill="white"/>
    <path d="M9.81 1.13H23.45V14.82H9.81V1.13Z" fill="black"/>
    <path d="M4.53 13.06H18.21V26.82H4.53V13.06Z" fill="black"/>
    <path d="M4.43 3.45H9.75V8.9H4.43V3.45Z" fill="black"/>
    <path d="M1.08 8.9H9.96V17.63H1.08V8.9Z" fill="black"/>
    <path d="M18.27 19.03H23.58V24.45H18.27V19.03Z" fill="black"/>
    <path d="M17.9 10.29H26.93V19.01H17.9V10.29Z" fill="black"/>
    <path d="M32.18 10.96H40.09V21H32.18V10.96Z" fill="white"/>
    <path d="M42.11 8.22H43.56V20.92H42.11V8.22Z" fill="white"/>
    <path d="M45.24 10.96H53.87V21H45.24V10.96Z" fill="white"/>
    <path d="M54.77 10.95H62.05V20.99H54.77V10.95Z" fill="white"/>
    <path d="M63.16 8.2H69.16V21.02H63.16V8.2Z" fill="white"/>
    <path d="M71.04 8.24H72.49V20.92H71.04V8.24Z" fill="white"/>
    <path d="M74.74 10.95H81.4V20.99H74.74V10.95Z" fill="white"/>
</svg> 